<svg width="1728" height="131" viewBox="0 0 1728 131" fill="none" xmlns="http://www.w3.org/2000/svg">
<path fill-rule="evenodd" clip-rule="evenodd" d="M0 116.338L12.96 113.931C25.92 111.523 51.84 106.709 79.2 106.709C105.12 106.709 131.04 111.523 156.96 99.4864C182.88 87.4494 208.8 58.5605 236.16 48.9309C262.08 39.3012 288 48.9309 313.92 41.7086C339.84 34.4864 367.2 10.4123 393.12 5.59753C419.04 0.782715 444.96 15.2272 470.88 22.4494C496.8 29.6716 524.16 29.6716 550.08 41.7086C576 53.7457 601.92 77.8198 627.84 75.4123C655.2 73.0049 681.12 44.116 707.04 39.3012C732.96 34.4864 758.88 53.7457 784.8 48.9309C812.16 44.116 838.08 15.2272 864 5.59753C889.92 -4.0321 915.84 5.59753 943.2 12.8198C969.12 20.042 995.04 24.8568 1020.96 41.7086C1046.88 58.5605 1072.8 87.4494 1100.16 85.042C1126.08 82.6346 1152 48.9309 1177.92 34.4864C1203.84 20.042 1231.2 24.8568 1257.12 34.4864C1283.04 44.116 1308.96 58.5605 1334.88 51.3383C1360.8 44.116 1388.16 15.2272 1414.08 5.59753C1440 -4.0321 1465.92 5.59753 1491.84 10.4123C1519.2 15.2272 1545.12 15.2272 1571.04 27.2642C1596.96 39.3012 1622.88 63.3753 1648.8 60.9679C1676.16 58.5605 1702.08 29.6716 1715.04 15.2272L1728 0.782715V130.783H1715.04C1702.08 130.783 1676.16 130.783 1648.8 130.783C1622.88 130.783 1596.96 130.783 1571.04 130.783C1545.12 130.783 1519.2 130.783 1491.84 130.783C1465.92 130.783 1440 130.783 1414.08 130.783C1388.16 130.783 1360.8 130.783 1334.88 130.783C1308.96 130.783 1283.04 130.783 1257.12 130.783C1231.2 130.783 1203.84 130.783 1177.92 130.783C1152 130.783 1126.08 130.783 1100.16 130.783C1072.8 130.783 1046.88 130.783 1020.96 130.783C995.04 130.783 969.12 130.783 943.2 130.783C915.84 130.783 889.92 130.783 864 130.783C838.08 130.783 812.16 130.783 784.8 130.783C758.88 130.783 732.96 130.783 707.04 130.783C681.12 130.783 655.2 130.783 627.84 130.783C601.92 130.783 576 130.783 550.08 130.783C524.16 130.783 496.8 130.783 470.88 130.783C444.96 130.783 419.04 130.783 393.12 130.783C367.2 130.783 339.84 130.783 313.92 130.783C288 130.783 262.08 130.783 236.16 130.783C208.8 130.783 182.88 130.783 156.96 130.783C131.04 130.783 105.12 130.783 79.2 130.783C51.84 130.783 25.92 130.783 12.96 130.783H0V116.338Z" fill="#EB5937" fill-opacity="0.55"/>
</svg>
