<svg width="1728" height="131" viewBox="0 0 1728 131" fill="none" xmlns="http://www.w3.org/2000/svg">
<path fill-rule="evenodd" clip-rule="evenodd" d="M1728 15.2272L1715.04 17.6346C1702.08 20.042 1676.16 24.8568 1648.8 24.8568C1622.88 24.8568 1596.96 20.042 1571.04 32.079C1545.12 44.116 1519.2 73.0049 1491.84 82.6346C1465.92 92.2642 1440 82.6346 1414.08 89.8568C1388.16 97.079 1360.8 121.153 1334.88 125.968C1308.96 130.783 1283.04 116.338 1257.12 109.116C1231.2 101.894 1203.84 101.894 1177.92 89.8568C1152 77.8198 1126.08 53.7457 1100.16 56.1531C1072.8 58.5605 1046.88 87.4494 1020.96 92.2642C995.04 97.079 969.12 77.8198 943.2 82.6346C915.84 87.4494 889.92 116.338 864 125.968C838.08 135.598 812.16 125.968 784.8 118.746C758.88 111.523 732.96 106.709 707.04 89.8568C681.12 73.0049 655.2 44.116 627.84 46.5235C601.92 48.9309 576 82.6346 550.08 97.079C524.16 111.523 496.8 106.709 470.88 97.079C444.96 87.4494 419.04 73.0049 393.12 80.2272C367.2 87.4494 339.84 116.338 313.92 125.968C288 135.598 262.08 125.968 236.16 121.153C208.8 116.338 182.88 116.338 156.96 104.301C131.04 92.2642 105.12 68.1901 79.2 70.5975C51.8401 73.0049 25.9201 101.894 12.9601 116.338L-1.90735e-05 130.783V0.782715H12.9601C25.9201 0.782715 51.8401 0.782715 79.2 0.782715C105.12 0.782715 131.04 0.782715 156.96 0.782715C182.88 0.782715 208.8 0.782715 236.16 0.782715C262.08 0.782715 288 0.782715 313.92 0.782715C339.84 0.782715 367.2 0.782715 393.12 0.782715C419.04 0.782715 444.96 0.782715 470.88 0.782715C496.8 0.782715 524.16 0.782715 550.08 0.782715C576 0.782715 601.92 0.782715 627.84 0.782715C655.2 0.782715 681.12 0.782715 707.04 0.782715C732.96 0.782715 758.88 0.782715 784.8 0.782715C812.16 0.782715 838.08 0.782715 864 0.782715C889.92 0.782715 915.84 0.782715 943.2 0.782715C969.12 0.782715 995.04 0.782715 1020.96 0.782715C1046.88 0.782715 1072.8 0.782715 1100.16 0.782715C1126.08 0.782715 1152 0.782715 1177.92 0.782715C1203.84 0.782715 1231.2 0.782715 1257.12 0.782715C1283.04 0.782715 1308.96 0.782715 1334.88 0.782715C1360.8 0.782715 1388.16 0.782715 1414.08 0.782715C1440 0.782715 1465.92 0.782715 1491.84 0.782715C1519.2 0.782715 1545.12 0.782715 1571.04 0.782715C1596.96 0.782715 1622.88 0.782715 1648.8 0.782715C1676.16 0.782715 1702.08 0.782715 1715.04 0.782715H1728V15.2272Z" fill="#EB5937" fill-opacity="0.55"/>
</svg>
